<?xml version="1.0" encoding="UTF-8"?>
<svg version="1.1" xmlns="http://www.w3.org/2000/svg" width="26" height="32">
<path d="M0 0 C8.58 0 17.16 0 26 0 C26 10.56 26 21.12 26 32 C17.42 32 8.84 32 0 32 C0 21.44 0 10.88 0 0 Z " fill="#FCFEFD" transform="translate(0,0)"/>
<path d="M0 0 C1.051875 0.185625 2.10375 0.37125 3.1875 0.5625 C6.61914506 0.95629533 8.70212589 0.65957482 12 0 C12.66 0.66 13.32 1.32 14 2 C13.72694946 6.18677488 12.99197736 9.00802264 10 12 C5.82446266 14.43573012 2.63448199 14.04931668 -2 13 C-4 11 -4 11 -4.375 8.75 C-3.87543369 5.08651376 -2.18045292 2.92998361 0 0 Z " fill="#69DEA2" transform="translate(8,9)"/>
<path d="M0 0 C1.32 0.33 2.64 0.66 4 1 C4.35651483 4.20863349 4.23683549 5.64001006 2.4375 8.375 C0 10 0 10 -3.75 9.75 C-5.35875 9.37875 -5.35875 9.37875 -7 9 C-5.68 8.34 -4.36 7.68 -3 7 C-3.33 6.01 -3.66 5.02 -4 4 C-3 2 -3 2 0 1 C0 0.67 0 0.34 0 0 Z " fill="#23D078" transform="translate(13,13)"/>
<path d="M0 0 C2.33672984 0.3086247 4.66993089 0.64456573 7 1 C8.66666667 0.66666667 10.33333333 0.33333333 12 0 C12.66 0.66 13.32 1.32 14 2 C13.75 5.0625 13.75 5.0625 13 8 C12.01 8.495 12.01 8.495 11 9 C10.34 7.35 9.68 5.7 9 4 C7.9275 4.04125 6.855 4.0825 5.75 4.125 C2.34252515 4.0114175 0.79260369 3.78726636 -2 2 C-1.34 1.34 -0.68 0.68 0 0 Z " fill="#1ACE72" transform="translate(8,9)"/>
<path d="M0 0 C0.78375 0.04125 1.5675 0.0825 2.375 0.125 C3.365 2.435 4.355 4.745 5.375 7.125 C4.715 7.785 4.055 8.445 3.375 9.125 C2.385 8.795 1.395 8.465 0.375 8.125 C0.705 7.795 1.035 7.465 1.375 7.125 C1.41563832 5.45882885 1.417721 3.79111905 1.375 2.125 C-0.605 2.125 -2.585 2.125 -4.625 2.125 C-2.625 0.125 -2.625 0.125 0 0 Z " fill="#75E1AA" transform="translate(14.625,11.875)"/>
</svg>
